# xmcd
#
# Track frame offsets: 
#        150
#        15130
#        27462
#        43547
#        58130
#        80782
#        97480
#        112350
#        126307
#        145350
#        160737
#
# Disc length: 2349 seconds
#
# Revision: 7
# Processed by: cddbd v1.5.2PL0 Copyright (c) Steve Scherf et al.
# Submitted via: ExactAudioCopy v1.1
#
DISCID=a0092b0b
DTITLE=Diamond Rio - Diamond Rio
DYEAR=1991
DGENRE=Country
TTITLE0=Meet In The Middle
TTITLE1=This State Of Mind
TTITLE2=They Don't Make Hearts (Like They Used To)
TTITLE3=Mirror Mirror
TTITLE4=The Ballad Of Conley And Billy (The Proof's In The Pickin')
TTITLE5=Nowhere Bound
TTITLE6=It's Gone
TTITLE7=Norma Jean Riley
TTITLE8=Mama Don't Forget To Pray For Me
TTITLE9=Pick Me Up
TTITLE10=Poultry Promenade
EXTD=
EXTT0=
EXTT1=
EXTT2=
EXTT3=
EXTT4=(The Proof's In The Pickin')
EXTT5=
EXTT6=
EXTT7=
EXTT8=
EXTT9=
EXTT10=
PLAYORDER=
